<svg xmlns="http://www.w3.org/2000/svg" viewBox="0 0 100 100" width="400" height="400">
  <path d="M50 5 C50 5 25 45 25 65 C25 78.8 36.2 90 50 90 C63.8 90 75 78.8 75 65 C75 45 50 5 50 5Z" fill="#009CDE"/>
  
  <path d="M15 50 C15 75 35 95 55 95 C45 95 35 85 30 70 C25 55 25 40 25 40 C25 40 15 45 15 50Z" fill="#228B22"/>
  <path d="M85 55 C85 80 65 95 45 95 C55 95 65 85 70 70 C75 55 75 40 75 40 C75 40 85 50 85 55Z" fill="#32CD32"/>
  
  <path d="M35 85 C45 92 55 92 65 85 C55 88 45 88 35 85Z" fill="#FFFFFF"/>
</svg>
