<?xml version="1.0" standalone="no"?>
<!DOCTYPE svg PUBLIC "-//W3C//DTD SVG 20010904//EN"
 "http://www.w3.org/TR/2001/REC-SVG-20010904/DTD/svg10.dtd">
<svg version="1.0" xmlns="http://www.w3.org/2000/svg"
 width="200.000000pt" height="200.000000pt" viewBox="0 0 200.000000 200.000000"
 preserveAspectRatio="xMidYMid meet">
<g transform="translate(0.000000,200.000000) scale(0.100000,-0.100000)"
fill="#000000" stroke="none">
<path d="M867 1899 c-53 -175 -167 -442 -250 -584 -138 -235 -163 -355 -151
-710 l6 -209 19 37 c53 102 193 211 313 243 57 15 162 18 217 5 36 -8 37 -8
80 51 57 79 132 146 207 186 l62 33 -21 42 c-12 23 -74 137 -137 252 -196 356
-291 577 -314 729 -2 10 -16 -24 -31 -75z m62 -119 c11 -30 20 -63 21 -73 0
-10 4 -16 9 -13 12 8 23 -40 16 -67 -2 -12 -2 -16 1 -9 11 24 26 12 22 -17 -2
-17 -1 -28 3 -25 9 5 41 -39 38 -52 -5 -19 14 -66 21 -54 5 8 9 5 13 -9 3 -14
1 -19 -6 -14 -7 3 0 -5 16 -20 24 -23 32 -44 28 -70 0 -4 5 -6 11 -5 8 2 12
-7 11 -25 -2 -25 0 -27 14 -15 15 12 15 11 4 -11 -16 -29 1 -69 34 -77 13 -3
33 -28 54 -67 18 -34 40 -74 49 -89 14 -22 15 -31 5 -47 -10 -15 -9 -20 2 -25
10 -3 12 0 8 11 -4 11 -2 14 8 11 8 -3 13 -13 11 -23 -2 -9 1 -14 6 -11 16 10
22 -21 7 -34 -10 -9 -19 -8 -37 1 -20 11 -22 10 -10 -3 10 -13 10 -17 -3 -22
-9 -3 -13 -2 -10 4 3 6 -1 7 -9 4 -9 -3 -13 -10 -10 -15 8 -14 -20 -11 -36 4
-12 10 -12 9 -2 -4 9 -12 8 -20 -4 -37 -8 -12 -18 -21 -22 -19 -4 2 -19 -10
-34 -25 -15 -15 -24 -28 -21 -28 3 0 0 -7 -7 -15 -7 -8 -17 -12 -22 -9 -5 3
-8 -2 -6 -12 2 -10 -2 -19 -9 -19 -6 0 -15 -3 -19 -7 -4 -4 -12 0 -19 9 -11
14 -12 13 -10 -5 1 -12 5 -25 10 -29 4 -5 5 -2 0 6 -5 9 -4 12 3 7 21 -12 2
-32 -33 -34 -19 -2 -35 1 -35 6 0 8 -67 8 -155 0 -11 -1 -29 2 -40 6 -16 7
-17 6 -5 -4 12 -9 9 -10 -15 -7 -16 2 -24 2 -17 0 17 -6 5 -23 -16 -23 -9 0
-28 -9 -42 -20 -31 -24 -47 -26 -30 -3 7 10 -2 1 -21 -20 -24 -27 -39 -36 -51
-32 -10 4 -15 11 -12 16 3 5 1 9 -4 9 -6 0 -12 -7 -16 -15 -3 -8 0 -14 6 -12
6 1 13 -4 16 -12 3 -10 0 -12 -10 -8 -10 3 -15 0 -14 -11 1 -11 -6 -16 -17
-16 -13 2 -15 -1 -7 -11 7 -8 7 -16 2 -19 -10 -6 -35 18 -27 26 3 2 -2 5 -10
5 -8 0 -12 -4 -9 -8 2 -4 0 -10 -5 -14 -7 -4 -9 61 -5 182 6 243 7 246 22 256
8 5 13 24 11 45 -3 56 0 74 11 67 9 -6 15 22 11 54 -2 7 2 10 8 7 5 -4 13 4
17 16 8 27 35 49 49 41 5 -3 4 0 -2 8 -16 16 -17 49 -2 49 6 0 9 -6 6 -14 -3
-8 2 -20 11 -28 15 -11 16 -11 7 2 -9 14 -11 26 -6 72 0 10 20 35 43 58 23 22
38 40 34 40 -5 0 -15 -8 -22 -17 -11 -15 -11 -11 0 22 8 22 19 39 26 37 6 -1
9 2 6 7 -3 5 5 29 18 53 13 25 27 60 31 79 6 26 9 30 14 16 5 -12 11 2 19 42
7 34 17 61 22 61 8 0 19 38 25 87 1 14 6 28 11 32 5 3 9 12 10 19 2 29 5 33
14 27 6 -4 10 6 11 22 1 26 2 26 9 -7 5 -19 18 -60 29 -90z m129 -285 c-3 -3
-9 2 -12 12 -6 14 -5 15 5 6 7 -7 10 -15 7 -18z m108 -204 c-3 -5 4 -20 15
-35 11 -14 16 -26 10 -26 -15 0 -44 47 -36 60 3 5 8 10 11 10 3 0 3 -4 0 -9z
m-571 -81 c-3 -5 -11 -10 -16 -10 -6 0 -7 5 -4 10 3 6 11 10 16 10 6 0 7 -4 4
-10z m-88 -707 c-17 -18 -22 -8 -11 22 5 12 10 13 17 6 8 -8 6 -16 -6 -28z"/>
<path d="M870 1836 c0 -2 7 -9 15 -16 9 -7 15 -8 15 -2 0 5 -7 12 -15 16 -8 3
-15 4 -15 2z"/>
<path d="M890 1796 c0 -2 8 -10 18 -17 15 -13 16 -12 3 4 -13 16 -21 21 -21
13z"/>
<path d="M851 1783 c-1 -13 16 -26 37 -29 6 -1 10 2 6 7 -3 5 -11 9 -19 9 -7
0 -16 6 -18 13 -4 9 -6 9 -6 0z"/>
<path d="M861 1713 c0 -12 -9 -27 -18 -32 -10 -6 -13 -11 -7 -11 18 0 36 27
31 47 -4 14 -5 14 -6 -4z"/>
<path d="M956 1667 c3 -10 9 -15 12 -12 3 3 0 11 -7 18 -10 9 -11 8 -5 -6z"/>
<path d="M951 1624 c0 -11 3 -14 6 -6 3 7 2 16 -1 19 -3 4 -6 -2 -5 -13z"/>
<path d="M771 1534 c0 -11 3 -14 6 -6 3 7 2 16 -1 19 -3 4 -6 -2 -5 -13z"/>
<path d="M1207 1160 c9 -22 20 -40 25 -40 4 0 -1 18 -12 40 -11 22 -22 40 -24
40 -3 0 3 -18 11 -40z"/>
<path d="M525 1059 c-11 -17 1 -21 15 -4 8 9 8 15 2 15 -6 0 -14 -5 -17 -11z"/>
<path d="M531 1004 c0 -11 3 -14 6 -6 3 7 2 16 -1 19 -3 4 -6 -2 -5 -13z"/>
<path d="M1290 970 c8 -5 24 -10 34 -10 26 0 18 6 -19 14 -22 5 -26 4 -15 -4z"/>
<path d="M1155 870 c-4 -6 -11 -8 -16 -5 -5 4 -9 1 -9 -4 0 -16 16 -13 30 4 7
8 10 15 7 15 -3 0 -9 -5 -12 -10z"/>
<path d="M1048 803 c7 -3 16 -2 19 1 4 3 -2 6 -13 5 -11 0 -14 -3 -6 -6z"/>
<path d="M1088 803 c6 -2 18 -2 25 0 6 3 1 5 -13 5 -14 0 -19 -2 -12 -5z"/>
<path d="M799 757 c4 -4 43 -7 87 -5 l79 3 -87 5 c-48 3 -83 1 -79 -3z"/>
<path d="M690 710 l-25 -8 27 -1 c15 -1 30 4 33 9 7 11 0 11 -35 0z"/>
<path d="M1008 713 c6 -2 18 -2 25 0 6 3 1 5 -13 5 -14 0 -19 -2 -12 -5z"/>
<path d="M601 633 c-1 -17 16 -25 25 -12 4 7 3 9 -4 5 -5 -3 -13 0 -15 6 -4 9
-6 10 -6 1z"/>
<path d="M438 1155 c-115 -156 -211 -347 -229 -456 -21 -131 26 -300 129 -463
l29 -45 14 67 c10 48 14 153 14 377 1 348 8 398 79 538 19 37 33 67 31 67 -2
0 -32 -38 -67 -85z m-32 -107 c-1 -7 -8 -24 -16 -38 -12 -20 -15 -84 -17 -330
-1 -304 -6 -426 -17 -437 -3 -4 -6 3 -6 14 0 12 -5 23 -11 25 -7 2 -7 22 -1
61 5 31 5 57 0 57 -4 0 -8 -18 -8 -41 0 -53 -20 -48 -39 12 -23 70 -35 99 -43
99 -5 0 -7 3 -6 8 1 4 -2 36 -6 72 -12 106 -6 201 14 225 6 7 10 17 9 21 -3
21 2 26 15 15 12 -10 13 -9 9 7 -6 24 45 134 70 153 4 3 9 16 10 27 1 12 7 22
13 22 6 0 14 9 17 20 6 22 17 28 13 8z"/>
<path d="M352 848 c-1 -20 -5 -45 -8 -55 -5 -14 -4 -15 5 -7 7 7 11 29 8 55
-3 42 -4 42 -5 7z"/>
<path d="M330 830 c-2 -33 -3 -33 -10 -10 -7 21 -8 21 -9 5 0 -11 3 -27 8 -34
8 -12 11 -9 16 11 4 15 5 35 2 45 -3 10 -6 3 -7 -17z"/>
<path d="M340 730 c0 -5 5 -10 10 -10 6 0 10 5 10 10 0 6 -4 10 -10 10 -5 0
-10 -4 -10 -10z"/>
<path d="M322 710 c0 -14 2 -19 5 -12 2 6 2 18 0 25 -3 6 -5 1 -5 -13z"/>
<path d="M352 665 c0 -16 2 -22 5 -12 2 9 2 23 0 30 -3 6 -5 -1 -5 -18z"/>
<path d="M345 580 c-8 -13 3 -30 18 -29 9 0 9 2 0 5 -7 3 -9 12 -6 20 6 16 -3
19 -12 4z"/>
<path d="M326 520 c8 -43 14 -51 14 -19 0 13 -5 31 -10 39 -7 11 -8 5 -4 -20z"/>
<path d="M312 440 c0 -14 2 -19 5 -12 2 6 2 18 0 25 -3 6 -5 1 -5 -13z"/>
<path d="M295 390 c3 -5 8 -10 11 -10 2 0 4 5 4 10 0 6 -5 10 -11 10 -5 0 -7
-4 -4 -10z"/>
<path d="M311 354 c0 -11 3 -14 6 -6 3 7 2 16 -1 19 -3 4 -6 -2 -5 -13z"/>
<path d="M340 1116 c0 -2 7 -7 16 -10 8 -3 12 -2 9 4 -6 10 -25 14 -25 6z"/>
<path d="M1553 945 c-133 -36 -295 -139 -364 -232 -43 -57 -95 -146 -174 -298
-64 -123 -90 -161 -153 -222 -107 -105 -275 -141 -406 -87 -44 18 -3 -15 51
-41 145 -68 356 -71 545 -7 131 44 278 162 324 260 25 54 68 215 93 351 35
184 140 292 273 278 34 -4 46 -3 33 3 -31 13 -164 10 -222 -5z m37 -20 c-14
-17 -30 -20 -30 -6 0 5 8 12 18 14 9 3 19 5 21 6 2 0 -2 -6 -9 -14z m-50 -20
c-10 -12 -10 -15 0 -15 7 0 4 -8 -7 -17 -11 -10 -28 -39 -37 -65 -10 -26 -22
-50 -27 -53 -5 -4 -6 1 -3 9 3 9 1 16 -5 16 -6 0 -11 -10 -12 -22 -4 -100 -7
-130 -16 -177 -6 -29 -15 -56 -20 -60 -13 -9 -24 -41 -14 -41 5 0 7 -9 4 -20
-3 -11 -10 -17 -16 -13 -6 4 -7 1 -3 -6 11 -18 -3 -83 -16 -75 -6 4 -8 0 -4
-12 8 -25 -8 -49 -25 -38 -12 6 -12 5 -1 -8 10 -13 10 -18 1 -24 -8 -4 -9 -3
-5 4 4 7 3 12 -2 12 -6 0 -12 -7 -16 -15 -3 -8 -1 -15 5 -15 6 0 -7 -16 -28
-36 -20 -19 -39 -31 -41 -25 -2 6 -8 11 -13 11 -4 0 -6 -7 -3 -15 7 -18 -43
-66 -61 -58 -8 2 -24 -2 -37 -11 -12 -9 -18 -16 -13 -16 6 0 -6 -10 -25 -22
-23 -14 -52 -21 -84 -22 -34 0 -43 -2 -30 -8 15 -6 13 -7 -8 -5 -16 3 -28 0
-28 -5 0 -6 -7 -8 -15 -5 -8 4 -17 2 -20 -3 -4 -7 -13 -6 -25 0 -10 5 -25 10
-32 9 -7 0 -4 -4 7 -8 28 -11 -132 -25 -184 -16 -52 9 -62 22 -13 17 27 -2 33
-1 22 7 -16 11 -24 8 77 36 39 11 63 24 66 35 2 9 21 24 41 34 33 15 72 67 60
78 -2 3 7 16 21 29 13 13 25 28 25 32 0 4 5 13 10 20 6 7 18 21 26 32 15 19
15 19 11 -7 -2 -15 -1 -25 4 -22 4 2 7 23 6 45 -1 29 4 43 16 50 9 6 17 15 17
20 0 6 -6 7 -12 3 -8 -4 -10 -3 -5 2 5 5 14 9 20 9 7 0 11 11 9 23 -2 27 24
60 31 39 2 -6 2 0 0 15 -3 18 3 33 19 49 13 12 16 18 8 14 -8 -4 -4 3 10 16
13 13 28 23 33 21 5 -1 6 7 2 18 -3 11 -1 28 5 37 9 15 10 14 5 -7 -5 -24 -5
-24 10 3 9 16 14 31 11 34 -3 3 6 15 20 26 22 17 28 18 36 6 8 -11 9 -11 5 2
-5 17 33 59 53 59 6 0 10 5 10 11 0 5 5 7 10 4 6 -3 10 -1 10 5 0 6 5 8 10 5
6 -3 10 -1 10 5 0 6 5 8 10 5 6 -3 10 1 10 9 0 10 6 13 17 9 11 -4 14 -3 9 5
-4 7 4 14 21 17 15 3 39 12 53 20 36 19 56 19 40 0z m-375 -775 c-3 -5 -12
-10 -18 -10 -7 0 -6 4 3 10 19 12 23 12 15 0z"/>
<path d="M1433 855 c-13 -15 -17 -25 -9 -25 7 0 18 11 24 25 14 31 13 31 -15
0z"/>
<path d="M1242 735 c-11 -12 -10 -15 3 -15 8 0 15 7 15 15 0 18 -2 18 -18 0z"/>
<path d="M1280 309 c0 -5 5 -7 10 -4 6 3 10 8 10 11 0 2 -4 4 -10 4 -5 0 -10
-5 -10 -11z"/>
<path d="M1265 239 c-4 -6 -5 -12 -2 -15 2 -3 7 2 10 11 7 17 1 20 -8 4z"/>
<path d="M872 120 c0 -14 2 -19 5 -12 2 6 2 18 0 25 -3 6 -5 1 -5 -13z"/>
<path d="M825 90 c-3 -5 -1 -10 4 -10 6 0 11 5 11 10 0 6 -2 10 -4 10 -3 0 -8
-4 -11 -10z"/>
<path d="M808 63 c7 -3 16 -2 19 1 4 3 -2 6 -13 5 -11 0 -14 -3 -6 -6z"/>
<path d="M738 53 c6 -2 18 -2 25 0 6 3 1 5 -13 5 -14 0 -19 -2 -12 -5z"/>
<path d="M1660 900 c-9 -6 -10 -10 -3 -10 6 0 15 5 18 10 8 12 4 12 -15 0z"/>
<path d="M1104 648 c-4 -7 -14 -24 -22 -38 -14 -24 -13 -24 3 -5 20 24 37 55
31 55 -3 0 -8 -6 -12 -12z"/>
<path d="M1512 640 c0 -14 2 -19 5 -12 2 6 2 18 0 25 -3 6 -5 1 -5 -13z"/>
<path d="M838 610 c-25 -4 -67 -20 -92 -35 -59 -35 -149 -123 -190 -188 -29
-45 -116 -212 -116 -221 0 -2 27 -9 61 -16 68 -15 143 -3 214 33 76 38 164
142 243 287 40 73 71 134 70 136 -9 8 -150 11 -190 4z m131 -22 c17 -12 18
-16 5 -43 -32 -65 -74 -129 -74 -112 0 9 -4 17 -10 17 -6 0 -6 -9 0 -25 9 -24
6 -29 -13 -26 -5 1 -6 -3 -2 -9 3 -5 1 -18 -5 -27 -11 -17 -11 -17 -6 1 6 17
5 17 -11 5 -15 -13 -16 -12 -9 6 6 16 5 17 -5 8 -10 -10 -9 -17 7 -34 18 -21
18 -22 0 -16 -13 5 -17 3 -13 -7 7 -17 -16 -39 -28 -28 -4 4 -6 0 -3 -8 6 -19
-60 -61 -87 -55 -11 3 -14 2 -7 -1 33 -15 -13 -52 -57 -45 -7 1 -11 -1 -8 -6
3 -5 -2 -9 -11 -10 -9 0 -37 -4 -61 -7 -27 -4 -48 -2 -57 5 -8 6 -20 9 -28 6
-11 -5 -12 -1 -1 21 64 134 83 170 102 192 13 14 23 31 23 39 0 11 3 11 17 0
15 -12 16 -12 10 5 -6 14 2 27 30 52 20 18 40 31 45 28 4 -3 8 1 8 8 0 13 36
42 55 44 6 0 17 4 25 7 61 25 144 32 169 15z"/>
<path d="M871 571 c-8 -5 5 -7 35 -4 27 3 51 7 53 9 9 8 -75 3 -88 -5z"/>
<path d="M818 563 c7 -3 16 -2 19 1 4 3 -2 6 -13 5 -11 0 -14 -3 -6 -6z"/>
<path d="M700 490 c-13 -8 -12 -10 3 -10 9 0 17 5 17 10 0 12 -1 12 -20 0z"/>
<path d="M551 284 c0 -11 3 -14 6 -6 3 7 2 16 -1 19 -3 4 -6 -2 -5 -13z"/>
<path d="M648 223 c7 -3 16 -2 19 1 4 3 -2 6 -13 5 -11 0 -14 -3 -6 -6z"/>
<path d="M669 203 c-13 -15 -12 -15 9 -4 23 12 28 21 13 21 -5 0 -15 -7 -22
-17z"/>
<path d="M1316 181 c-4 -5 -2 -12 3 -15 5 -4 12 -2 15 3 4 5 2 12 -3 15 -5 4
-12 2 -15 -3z"/>
<path d="M417 129 c7 -7 15 -10 18 -7 3 3 -2 9 -12 12 -14 6 -15 5 -6 -5z"/>
</g>
</svg>
